<?xml version="1.0" standalone="no"?>
<!DOCTYPE svg PUBLIC "-//W3C//DTD SVG 20010904//EN"
 "http://www.w3.org/TR/2001/REC-SVG-20010904/DTD/svg10.dtd">
<svg version="1.0" xmlns="http://www.w3.org/2000/svg"
 width="1500.000000pt" height="1500.000000pt" viewBox="0 0 1500.000000 1500.000000"
 preserveAspectRatio="xMidYMid meet">
<metadata>
Created by potrace 1.11, written by Peter Selinger 2001-2013
</metadata>
<g transform="translate(0.000000,1500.000000) scale(0.100000,-0.100000)"
fill="#000000" stroke="none">
<path d="M513 14972 l-433 -2 5 -908 c3 -499 7 -1283 10 -1742 4 -774 12
-2140 20 -3637 1 -341 5 -625 9 -631 3 -5 1 -23 -3 -40 -5 -17 -7 -33 -3 -36
3 -3 5 -75 4 -158 -1 -84 -4 -484 -7 -888 -3 -404 -8 -953 -10 -1220 -2 -267
-8 -899 -12 -1405 -8 -915 -9 -4183 -1 -4190 6 -7 2683 -21 5651 -31 941 -3
1802 -8 1912 -11 110 -3 1801 -7 3758 -10 l3557 -4 1 168 c0 92 3 443 7 778 4
336 6 1665 5 2955 -3 3889 -2 4421 2 7733 4 2549 3 3187 -7 3181 -10 -6 -11
-4 0 7 6 7 12 30 12 51 l0 38 -3822 1 c-2103 0 -5263 2 -7023 2 -1760 1 -3395
1 -3632 -1z m9891 -2218 c3 -8 2 -12 -4 -9 -6 3 -10 10 -10 16 0 14 7 11 14
-7z m-7300 -2240 c3 -8 2 -12 -4 -9 -6 3 -10 10 -10 16 0 14 7 11 14 -7z
m7500 8 c3 -5 -1 -9 -9 -9 -8 0 -12 4 -9 9 3 4 7 8 9 8 2 0 6 -4 9 -8z m-754
-142 c0 -5 -2 -10 -4 -10 -3 0 -8 5 -11 10 -3 6 -1 10 4 10 6 0 11 -4 11 -10z
m-1743 -935 c0 -8 -4 -12 -9 -9 -5 3 -6 10 -3 15 9 13 12 11 12 -6z m480 -280
c0 -8 -4 -12 -9 -9 -5 3 -6 10 -3 15 9 13 12 11 12 -6z m5957 -2491 c3 -8 2
-12 -4 -9 -6 3 -10 10 -10 16 0 14 7 11 14 -7z m-11340 -992 c3 -5 -1 -9 -9
-9 -8 0 -12 4 -9 9 3 4 7 8 9 8 2 0 6 -4 9 -8z m-634 -1306 c0 -2 -8 -10 -17
-17 -16 -13 -17 -12 -4 4 13 16 21 21 21 13z m1880 -1610 c0 -2 -7 -7 -16 -10
-8 -3 -12 -2 -9 4 6 10 25 14 25 6z"/>
</g>
</svg>
